# xmcd
#
# Track frame offsets:
#   150
#   19545
#   37872
#   51989
#   71360
#   88719
#   106137
#   123312
#   140918
#   156890
#   172423
#   186841
#   203916
#   220911
#   239220
#   252657
#   268754
#   287355
#   304195
#   317712
#   335588
#
# Disc length: 4691 seconds
#
# Revision: 0
# Processed by: cddbd v1.5.2PL0 Copyright (c) Steve Scherf et al.
# Submitted via: GXTranscoder 2.0.1939
#
DISCID=45125115
DTITLE=narodna muzika - narodno mix
DYEAR=1900
DGENRE=narodna
TTITLE0=bas mi se svidja tvo ja devojka
TTITLE1=moje prvo neverstvo
TTITLE2=svi tvoji milioni
TTITLE3=gde sam ti ja
TTITLE4=za ljubav mobilna
TTITLE5=pocetak kraja
TTITLE6=otrovnica
TTITLE7=dodji i uzmi me
TTITLE8=kad cujem korak tvoj
TTITLE9=iskoristi moje mane
TTITLE10=xxxxxxxxxxxx
TTITLE11=yyyyyyyyyyy
TTITLE12=xx
TTITLE13=y
TTITLE14=gwsgs
TTITLE15=sdgasd<g
TTITLE16=<sgs<gsg
TTITLE17=dsgsd<gdg
TTITLE18=gsd<g
TTITLE19=ga<sdg
TTITLE20=dsg<
EXTD=
EXTT0=
EXTT1=
EXTT2=
EXTT3=
EXTT4=
EXTT5=
EXTT6=
EXTT7=
EXTT8=
EXTT9=
EXTT10=
EXTT11=
EXTT12=
EXTT13=
EXTT14=
EXTT15=
EXTT16=
EXTT17=
EXTT18=
EXTT19=
EXTT20=
PLAYORDER=
